<?xml version="1.0" standalone="no"?>
<!DOCTYPE svg PUBLIC "-//W3C//DTD SVG 20010904//EN"
 "http://www.w3.org/TR/2001/REC-SVG-20010904/DTD/svg10.dtd">
<svg version="1.0" xmlns="http://www.w3.org/2000/svg"
 width="512.000000pt" height="512.000000pt" viewBox="0 0 512.000000 512.000000"
 preserveAspectRatio="xMidYMid meet">

<g transform="translate(0.000000,512.000000) scale(0.100000,-0.100000)"
fill="#000000" stroke="none">
<path d="M1211 4629 c-602 -49 -859 -287 -925 -860 -24 -199 -24 -2219 0
-2418 67 -579 320 -810 939 -861 173 -14 2497 -14 2670 0 621 51 872 281 940
865 22 192 22 2218 0 2410 -69 584 -318 814 -940 865 -149 12 -2536 12 -2684
-1z m2694 -320 c384 -33 529 -142 597 -450 l23 -104 0 -1195 0 -1195 -23 -104
c-68 -308 -213 -417 -597 -450 -162 -14 -2528 -14 -2690 0 -382 32 -527 141
-597 445 -22 99 -22 101 -26 1229 -3 1156 -1 1269 35 1415 65 264 224 378 568
408 146 13 2563 14 2710 1z"/>
<path d="M1671 3624 c-132 -35 -275 -149 -338 -269 -122 -234 -64 -515 141
-681 291 -236 724 -112 852 242 108 296 -68 627 -376 709 -69 19 -209 18 -279
-1z m234 -323 c80 -36 135 -123 135 -211 0 -41 -32 -115 -63 -148 -79 -85
-218 -91 -307 -14 -159 135 -67 393 140 392 31 0 72 -8 95 -19z"/>
<path d="M2912 3553 c-49 -24 -75 -68 -80 -132 -4 -66 20 -111 78 -145 34 -21
48 -21 610 -21 562 0 576 0 610 21 58 34 82 79 78 145 -5 65 -32 109 -82 133
-30 14 -99 16 -608 16 -507 0 -577 -2 -606 -17z"/>
<path d="M3132 2703 c-18 -9 -45 -32 -60 -51 -39 -51 -38 -134 0 -184 54 -70
43 -69 567 -66 459 3 470 3 498 24 98 73 98 195 0 268 -28 21 -39 21 -500 23
-422 3 -476 1 -505 -14z"/>
<path d="M1578 2370 c-319 -57 -573 -290 -653 -600 -34 -132 -20 -213 47 -263
37 -28 116 -34 162 -12 51 25 74 61 92 152 23 113 65 194 139 268 68 68 153
115 243 134 81 17 356 14 427 -4 85 -23 152 -62 221 -130 72 -71 118 -158 139
-265 9 -41 24 -86 34 -100 31 -43 80 -70 128 -70 56 0 94 20 130 67 24 32 28
45 27 102 -2 159 -107 377 -245 506 -71 67 -134 110 -222 150 -130 60 -171 67
-407 70 -118 2 -236 0 -262 -5z"/>
<path d="M3560 1848 c-59 -30 -90 -77 -90 -137 0 -60 28 -111 76 -138 38 -22
49 -23 292 -23 281 0 302 4 344 63 34 47 37 132 6 176 -48 72 -64 76 -338 79
-239 3 -246 2 -290 -20z"/>
</g>
</svg>
