<?xml version="1.0" standalone="no"?>
<!DOCTYPE svg PUBLIC "-//W3C//DTD SVG 20010904//EN"
 "http://www.w3.org/TR/2001/REC-SVG-20010904/DTD/svg10.dtd">
<svg version="1.0" xmlns="http://www.w3.org/2000/svg"
 width="512.000000pt" height="512.000000pt" viewBox="0 0 512.000000 512.000000"
 preserveAspectRatio="xMidYMid meet">

<g transform="translate(0.000000,512.000000) scale(0.100000,-0.100000)"
fill="#000000" stroke="none">
<path d="M576 5097 c-35 -20 -58 -56 -228 -362 -105 -187 -225 -405 -269 -485
l-79 -145 0 -276 c0 -310 9 -374 72 -492 38 -70 121 -165 185 -208 l43 -30 0
-880 c0 -862 0 -881 20 -919 13 -26 34 -47 60 -60 39 -20 56 -20 1342 -20
l1303 0 1 -167 c1 -183 11 -238 73 -398 94 -243 333 -482 576 -576 158 -61
216 -72 390 -73 137 0 173 3 249 23 393 102 669 379 779 781 29 109 29 371 0
480 -93 337 -306 593 -603 721 -151 65 -243 83 -420 83 -171 0 -228 -10 -380
-68 l-90 -33 0 553 0 553 43 30 c64 43 147 138 185 208 63 118 72 182 72 492
l0 276 -79 145 c-44 80 -164 298 -269 485 -170 306 -193 342 -228 362 l-39 23
-1335 0 -1335 0 -39 -23z m2750 -572 c90 -159 163 -293 163 -297 1 -5 -692 -8
-1539 -8 -847 0 -1540 2 -1540 5 0 5 292 534 316 573 l15 22 1211 -2 1212 -3
162 -290z m-2428 -792 c-3 -166 -5 -193 -24 -234 -31 -66 -78 -114 -142 -146
-47 -23 -70 -28 -132 -28 -125 0 -222 62 -274 174 -19 41 -21 68 -24 234 l-4
187 302 0 302 0 -4 -187z m900 0 c-3 -166 -5 -193 -24 -234 -31 -66 -78 -114
-142 -146 -47 -23 -70 -28 -132 -28 -125 0 -222 62 -274 174 -19 41 -21 68
-24 234 l-4 187 302 0 302 0 -4 -187z m900 0 c-3 -166 -5 -193 -24 -234 -31
-66 -78 -114 -142 -146 -47 -23 -70 -28 -132 -28 -125 0 -222 62 -274 174 -19
41 -21 68 -24 234 l-4 187 302 0 302 0 -4 -187z m900 0 c-3 -166 -5 -193 -24
-234 -31 -66 -78 -114 -142 -146 -47 -23 -70 -28 -132 -28 -125 0 -222 62
-274 174 -19 41 -21 68 -24 234 l-4 187 302 0 302 0 -4 -187z m-2494 -561
c101 -92 258 -152 396 -152 139 0 295 60 397 153 l53 49 53 -49 c69 -62 156
-108 253 -133 190 -49 398 3 541 133 l53 49 53 -49 c30 -26 81 -63 115 -81 65
-35 194 -72 249 -72 l33 0 0 -626 0 -627 -54 -71 c-30 -39 -68 -95 -86 -123
l-32 -53 -289 0 -289 0 0 490 c0 472 -1 492 -20 530 -13 26 -34 47 -60 60 -38
19 -58 20 -520 20 -462 0 -482 -1 -520 -20 -26 -13 -47 -34 -60 -60 -19 -38
-20 -58 -20 -530 l0 -490 -375 0 -375 0 0 750 0 750 33 0 c55 0 184 37 250 72
33 18 84 54 111 80 28 26 53 47 55 48 2 0 27 -21 55 -48z m1146 -1252 l0 -400
-300 0 -300 0 0 400 0 400 300 0 300 0 0 -400z m1967 -136 c42 -8 99 -24 127
-35 130 -51 283 -179 359 -300 132 -209 153 -479 53 -700 -100 -222 -302 -384
-538 -433 -519 -107 -989 362 -882 882 83 404 480 669 881 586z"/>
<path d="M3998 1479 c-58 -30 -78 -79 -78 -189 l0 -90 -90 0 c-71 0 -99 -4
-130 -20 -45 -23 -80 -80 -80 -130 0 -50 35 -107 80 -130 31 -16 59 -20 130
-20 l90 0 0 -90 c0 -112 20 -159 80 -190 50 -25 90 -25 140 0 60 31 80 78 80
190 l0 90 90 0 c71 0 99 4 130 20 45 23 80 80 80 130 0 50 -35 107 -80 130
-31 16 -59 20 -130 20 l-90 0 0 90 c0 112 -20 159 -80 190 -49 25 -94 25 -142
-1z"/>
</g>
</svg>
