<?xml version="1.0" encoding="UTF-8"?>
<svg version="1.1" xmlns="http://www.w3.org/2000/svg" width="512" height="512">
<path d="M0 0 C0.99646423 -0.00538554 1.99292847 -0.01077108 3.01958859 -0.01631981 C6.33261505 -0.0305382 9.6452385 -0.0235107 12.95828247 -0.01637268 C15.34420084 -0.02207945 17.73011648 -0.02904489 20.11602783 -0.03717041 C25.90865747 -0.05322563 31.70116241 -0.05520922 37.49380957 -0.04995751 C42.20553106 -0.04590471 46.9172206 -0.04737249 51.62894058 -0.05270576 C52.30130915 -0.05345419 52.97367772 -0.05420261 53.66642109 -0.05497371 C55.03264498 -0.0565053 56.39886887 -0.05804365 57.76509275 -0.05958868 C70.55769937 -0.07329508 83.35024473 -0.06788924 96.14284994 -0.05640347 C107.8256482 -0.04647401 119.50828801 -0.05941003 131.19106184 -0.08333766 C143.21026472 -0.10776733 155.22939392 -0.11732699 167.24862111 -0.11068493 C173.98716346 -0.10720116 180.72558404 -0.10936881 187.46410751 -0.12693596 C193.80241294 -0.14243499 200.14041654 -0.13841631 206.47871017 -0.11963081 C208.79898522 -0.11595312 211.11928278 -0.11902933 213.43953705 -0.1295166 C232.09695042 -0.20737896 245.15312217 1.5145236 259.36502075 14.70018005 C270.24103879 26.19182176 272.06816672 38.8869306 272.00270081 54.10105896 C272.00687872 55.68648975 272.01235874 57.27191756 272.01902062 58.85733986 C272.03343363 63.19370468 272.02924353 67.52987877 272.0218538 71.86625385 C272.01711423 76.55072104 272.02963888 81.23514743 272.03987122 85.91960144 C272.05704833 95.08844977 272.05790158 104.25722953 272.05265831 113.42608976 C272.04861381 120.87905287 272.05006349 128.33199574 272.05540657 135.78495789 C272.05615499 136.84645447 272.05690341 137.90795106 272.05767452 139.00161421 C272.05920602 141.15814957 272.06074436 143.31468491 272.06228948 145.47122025 C272.07601027 165.68421373 272.0705795 185.89716848 272.05910427 206.11016107 C272.04916952 224.59707382 272.06211752 243.08388653 272.08603846 261.57078385 C272.11042671 280.56214755 272.12003818 299.55346463 272.11338574 318.54484367 C272.10989328 329.20352463 272.11212756 339.86212862 272.12963676 350.52079773 C272.14435516 359.5929091 272.14499874 368.66488929 272.12756585 377.73699808 C272.11905107 382.36409746 272.1169181 386.99096244 272.13221741 391.61804962 C272.14605983 395.85702949 272.14130718 400.09557403 272.12197817 404.33452868 C272.11821653 405.86467894 272.12114491 407.39486403 272.13158982 408.92498326 C272.20056496 419.80659588 271.2134747 429.53988301 263.431427 437.7900238 C255.35567184 444.8932149 246.49575806 447.76520177 235.80252075 447.45018005 C220.95462579 445.14163014 207.44384105 433.46604386 195.42752075 425.20018005 C191.74962494 422.68130812 188.06827249 420.16755647 184.384552 417.6572113 C183.47547592 417.03720245 182.56639984 416.4171936 181.629776 415.77839661 C175.11228641 411.35324811 168.49980712 407.1080675 161.81900024 402.93493652 C151.88388962 396.71204209 142.16703151 390.16058812 132.42752075 383.63768005 C130.49081865 382.34318948 128.55397036 381.04891759 126.61697388 379.75486755 C121.9479764 376.634978 117.28075794 373.51244294 112.61502075 370.38768005 C111.91087036 370.83716003 111.20671997 371.28664001 110.48123169 371.7497406 C105.57852847 374.87519314 100.66950453 377.98771391 95.72561646 381.04759216 C89.45676258 384.93097481 83.2644095 388.91057236 77.14382935 393.02391052 C70.45992044 397.50958598 63.72536383 401.91733984 56.99002075 406.32518005 C56.37324463 406.7288681 55.75646851 407.13255615 55.1210022 407.54847717 C52.57397684 409.21548076 50.02689056 410.88239112 47.47961426 412.54901123 C42.91205089 415.53772962 38.34694911 418.53018073 33.7829895 421.5243988 C31.86392311 422.78306781 29.94482747 424.04169221 28.02572632 425.30030823 C26.81982451 426.09134652 25.61404874 426.88257702 24.40841675 427.67402649 C21.05412613 429.87583279 17.6961036 432.07175922 14.33462524 434.2625885 C12.506906 435.45841667 10.68555198 436.66361644 8.86404419 437.86888123 C7.62104857 438.68399817 6.37788897 439.49886513 5.134552 440.3134613 C4.56837662 440.69120697 4.00220123 441.06895264 3.41886902 441.45814514 C-4.55010856 446.65011864 -13.41049597 448.75077125 -22.78341675 446.91893005 C-31.77116782 444.59594209 -38.57355634 440.16802328 -44.09591675 432.70799255 C-48.80786367 424.22648809 -48.81324084 416.38931206 -48.7726593 406.92826843 C-48.77683499 405.34598912 -48.7823138 403.76371281 -48.78897911 402.18144202 C-48.80342203 397.84441993 -48.79919258 393.50758805 -48.7918123 389.17055559 C-48.78707999 384.48874157 -48.79959116 379.80696867 -48.80982971 375.12516785 C-48.82702275 365.95671112 -48.82785654 356.78832291 -48.82261681 347.61985424 C-48.81857423 340.16590701 -48.82001972 332.71198002 -48.82536507 325.25803375 C-48.82611349 324.19684363 -48.82686191 323.13565351 -48.82763301 322.04230611 C-48.82916451 319.88641915 -48.83070285 317.7305322 -48.83224798 315.57464525 C-48.84597526 295.35778488 -48.84053409 275.1409632 -48.82906277 254.92410371 C-48.81913379 236.4384149 -48.83206488 217.95282623 -48.85599696 199.46715286 C-48.88039511 180.47810285 -48.88999384 161.48909946 -48.88334423 142.50003409 C-48.87985314 131.84237745 -48.88207665 121.18479779 -48.89959526 110.52715302 C-48.91432632 101.4528545 -48.914941 92.37868715 -48.89752435 83.30439118 C-48.88901878 78.67705793 -48.88685389 74.0499589 -48.9021759 69.42263794 C-48.91604654 65.18100677 -48.91122947 60.93980996 -48.89193667 56.69820377 C-48.88818356 55.16930402 -48.89107865 53.64036928 -48.90154832 52.11150077 C-49.00324679 36.11449625 -45.02040609 24.4376861 -34.07247925 12.63768005 C-24.40600648 3.48905404 -13.08814388 -0.08624304 0 0 Z M-12.32247925 38.13768005 C-15.72813284 43.5041645 -16.63539245 48.66084427 -16.63107491 54.94935513 C-16.635057 56.23473185 -16.6390391 57.52010857 -16.64314187 58.84443611 C-16.63743682 60.25838254 -16.63154565 61.67232823 -16.62548828 63.08627319 C-16.6263609 64.59786745 -16.62811292 66.10946141 -16.63066661 67.62105376 C-16.63513305 71.76685164 -16.62714613 75.91254596 -16.61711049 80.05833066 C-16.60846817 84.53200531 -16.61139671 89.0056742 -16.61291504 93.47935486 C-16.61396339 101.22768473 -16.60769195 108.9759809 -16.59643936 116.72430229 C-16.58018064 127.92705003 -16.57497597 139.12978149 -16.57246338 150.33253974 C-16.56808686 168.50856255 -16.55477893 186.68456739 -16.53585815 204.86058044 C-16.51749824 222.51617849 -16.50334228 240.17177165 -16.49484253 257.82737732 C-16.49431708 258.91579164 -16.49379164 260.00420596 -16.49325027 261.12560254 C-16.49064018 266.58589407 -16.48811277 272.04618564 -16.48562646 277.50647724 C-16.46489531 322.80022395 -16.42967095 368.09395107 -16.38497925 413.38768005 C-11.92575125 411.69530759 -8.16879474 409.4049074 -4.240448 406.73143005 C-3.55300003 406.2696637 -2.86555206 405.80789734 -2.15727234 405.33213806 C0.04064647 403.85503283 2.23437202 402.37185654 4.42752075 400.88768005 C7.28595195 398.95724367 10.14649098 397.02999345 13.009552 395.10643005 C13.71831985 394.63020706 14.42708771 394.15398407 15.15733337 393.66333008 C20.77201664 389.90983565 26.46528484 386.29506501 32.21250916 382.74827576 C36.29849921 380.22651394 40.31413945 377.62410894 44.30252075 374.95018005 C44.95059692 374.51584656 45.5986731 374.08151306 46.26638794 373.63401794 C46.83003052 373.254953 47.3936731 372.87588806 47.97439575 372.4853363 C59.12266219 365.02153603 70.36870102 357.70257425 81.61502075 350.38768005 C82.97578735 349.50209412 82.97578735 349.50209412 84.36404419 348.59861755 C86.54571494 347.18501567 88.73406422 345.78289959 90.92752075 344.38768005 C91.5113855 344.00934021 92.09525024 343.63100037 92.69680786 343.24119568 C98.85176294 339.37314432 104.72118122 336.95776365 112.05252075 337.01268005 C113.08248169 337.00494568 114.11244263 336.9972113 115.1736145 336.98924255 C123.59553555 337.96431173 130.01913605 341.56977624 136.9079895 346.3134613 C137.76729065 346.89238129 138.6265918 347.47130127 139.51193237 348.06776428 C142.28176056 349.93610681 145.04193584 351.81821417 147.80252075 353.70018005 C150.68953735 355.65120745 153.57920113 357.59825077 156.4697113 359.5440979 C158.28904674 360.7699989 160.10663111 361.99850449 161.92207336 363.23016357 C168.05787881 367.38400446 174.28297755 371.37679674 180.55252075 375.32518005 C187.88957205 379.96246228 195.13262378 384.71460374 202.31033325 389.5947113 C204.27523511 390.92490518 206.2401608 392.25506386 208.20510864 393.58518982 C212.14355567 396.25510199 216.07673475 398.93258045 220.00735474 401.61399841 C221.8361663 402.8563348 223.66502186 404.09860643 225.493927 405.34080505 C226.33879669 405.92034439 227.18366638 406.49988373 228.05413818 407.09698486 C228.84452484 407.63280685 229.6349115 408.16862885 230.44924927 408.72068787 C231.13568008 409.18920166 231.8221109 409.65771545 232.52934265 410.14042664 C234.81480145 411.50715063 237.13691207 412.42342941 239.61502075 413.38768005 C239.68368294 367.04204497 239.73654755 320.69641528 239.76821674 274.35073936 C239.77196887 268.87957303 239.77585184 263.40840679 239.77981567 257.9372406 C239.78060261 256.848027 239.78138954 255.7588134 239.78220031 254.63659333 C239.79525527 236.99874041 239.81890963 219.36091682 239.84647914 201.7230813 C239.87453081 183.62589108 239.89119651 165.52871622 239.89728624 147.43150514 C239.90140316 136.26399808 239.91440762 125.0965739 239.93877015 113.92909234 C239.95462437 106.2717919 239.95942181 98.61453432 239.95552488 90.95721865 C239.95360286 86.53894046 239.95655546 82.12080715 239.97263718 77.7025547 C239.98726143 73.65513193 239.98795677 69.60795116 239.97771744 65.56051712 C239.97645236 64.0987198 239.98023653 62.63690723 239.9896703 61.17513979 C240.31797342 48.79905358 240.31797342 48.79905358 235.3400628 37.81346756 C229.35666062 32.28338964 222.00299622 32.09266691 214.32989502 32.12698364 C213.41554841 32.1231581 212.5012018 32.11933255 211.55914772 32.11539108 C208.50626115 32.10510179 205.45356409 32.1090455 202.40066528 32.11302185 C200.20736518 32.10867312 198.01406659 32.10348944 195.82077026 32.09753418 C189.8703399 32.08415013 183.91997307 32.08356487 177.96953058 32.08609748 C172.99936598 32.08716761 168.0292142 32.08228272 163.05905235 32.07749206 C150.66181199 32.06576482 138.26460294 32.06662078 125.8673607 32.07304887 C115.11354961 32.0782168 104.35982913 32.06696441 93.60603596 32.04795065 C82.55085023 32.0285546 71.49570943 32.02061052 60.44050682 32.0240739 C54.23914608 32.02588603 48.03786833 32.02325748 41.83652115 32.00935936 C36.00390595 31.99677661 30.171472 31.99872952 24.33885956 32.01177025 C22.20115726 32.0141346 20.06344219 32.01140642 17.92575455 32.00314713 C15.00166493 31.99266618 12.07818193 32.00079138 9.15411377 32.01345825 C8.31353176 32.00608397 7.47294976 31.99870968 6.60689557 31.99111193 C-0.14177337 32.05237356 -7.55533357 32.89850272 -12.32247925 38.13768005 Z " fill="#000000" transform="translate(144.38497924804688,31.612319946289063)"/>
<path d="M0 0 C1.86244786 1.61368505 3.66282432 3.25150721 5.41015625 4.98828125 C8.51066531 3.58022009 10.87500545 1.8655766 13.47265625 -0.32421875 C24.51996233 -8.97854159 39.36371313 -13.5166948 53.41015625 -12.01171875 C69.59441109 -9.76390558 80.93385872 -2.17910923 91.22265625 10.42578125 C98.25742775 19.95996568 102.70508047 31.10882266 103.41015625 42.98828125 C103.48943359 44.31085938 103.48943359 44.31085938 103.5703125 45.66015625 C104.50979541 76.54055101 83.86343382 103.89779699 64.41015625 125.98828125 C63.79785156 126.69984375 63.18554688 127.41140625 62.5546875 128.14453125 C60.85889801 130.11019698 59.13924491 132.05185005 57.41015625 133.98828125 C56.69472656 134.79652344 55.97929687 135.60476563 55.2421875 136.4375 C49.11766607 143.24568893 42.76271175 149.82895592 36.34765625 156.36328125 C35.52112549 157.21954102 34.69459473 158.07580078 33.84301758 158.95800781 C25.96090609 166.91419197 18.26879492 173.01293279 6.78515625 173.30078125 C-9.23151798 173.1059312 -18.39394364 161.3533013 -28.91723633 150.79125977 C-30.64879075 149.05434525 -32.38562734 147.32284236 -34.12304688 145.59179688 C-39.82383075 139.89504666 -45.41360265 134.1734435 -50.58984375 127.98828125 C-51.10216553 127.38798096 -51.6144873 126.78768066 -52.14233398 126.16918945 C-72.31492855 102.40669124 -92.46622638 74.52404793 -90.58984375 41.98828125 C-88.78760165 26.39640694 -82.85989874 13.90553452 -71.58984375 2.98828125 C-70.94144531 2.34246094 -70.29304688 1.69664062 -69.625 1.03125 C-50.19111837 -17.21036896 -20.58682675 -15.99127568 0 0 Z M-49.31640625 26.7578125 C-55.61712249 34.6259483 -57.75994921 42.9520592 -57.58984375 52.98828125 C-54.71978801 74.29422448 -34.70392091 95.33476006 -20.92578125 110.40625 C-19.62694118 111.84192439 -18.33519574 113.28444841 -17.07299805 114.75244141 C-12.49524822 120.07461036 -7.64272923 125.05348704 -2.65234375 129.98828125 C-1.87310547 130.76300781 -1.09386719 131.53773438 -0.29101562 132.3359375 C1.60708045 134.22238882 3.50748774 136.1064437 5.41015625 137.98828125 C8.84946208 136.50701768 11.07969963 134.56400679 13.7109375 131.91796875 C14.52369141 131.10328125 15.33644531 130.28859375 16.17382812 129.44921875 C17.43549805 128.16917969 17.43549805 128.16917969 18.72265625 126.86328125 C19.55216797 126.033125 20.38167969 125.20296875 21.23632812 124.34765625 C26.16292409 119.38606473 30.85978741 114.29456995 35.41015625 108.98828125 C36.37059951 107.90465521 37.33276351 106.82255118 38.296875 105.7421875 C53.04780708 89.02914236 70.57331964 68.32064672 70.41015625 44.98828125 C69.17127169 36.31608934 64.75082526 29.73451049 58.22265625 24.05078125 C53.8929226 20.87564324 50.69814574 20.56183048 45.41015625 20.98828125 C33.789696 24.63923375 25.84219278 33.30933396 17.66015625 41.86328125 C13.34188611 45.9416475 9.73335533 46.45063944 3.93359375 46.2890625 C-1.05447551 45.69450935 -4.15044179 43.734441 -7.2578125 39.96484375 C-8.41468476 38.41352305 -9.56689259 36.85871497 -10.71484375 35.30078125 C-16.83085734 27.75769782 -25.6032674 22.65896013 -35.15234375 20.98828125 C-40.99522887 20.5912908 -45.25951197 22.59995479 -49.31640625 26.7578125 Z " fill="#000000" transform="translate(249.58984375,144.01171875)"/>
</svg>
