<?xml version="1.0" encoding="iso-8859-1"?>
<!-- Uploaded to: SVG Repo, www.svgrepo.com, Generator: SVG Repo Mixer Tools -->
<!DOCTYPE svg PUBLIC "-//W3C//DTD SVG 1.1//EN" "http://www.w3.org/Graphics/SVG/1.1/DTD/svg11.dtd">
<svg fill="#000000" height="800px" width="800px" version="1.1" id="Capa_1" xmlns="http://www.w3.org/2000/svg" xmlns:xlink="http://www.w3.org/1999/xlink" 
	 viewBox="0 0 336.329 336.329" xml:space="preserve">
<g>
	<g>
		<g>
			<g>
				<path d="M282.044,34.714c-1.322-14.24-13.334-25.427-27.914-25.427c-7.861,0-14.973,3.256-20.066,8.484l-1.847-3.998
					c-1.695-3.67-5.991-5.339-9.72-3.768L35.141,88.881c-2.287-0.593-4.672-0.902-7.109-0.902c-5.279,0-10.44,1.492-14.925,4.316
					c-6.337,3.992-10.741,10.213-12.4,17.517c-1.659,7.305-0.374,14.817,3.617,21.154c4.122,6.544,10.61,10.975,17.991,12.502
					l80.572,127.922c-28.171,8.227-47.34,26.463-47.34,48.151c0,4.142,3.358,7.5,7.5,7.5h147.842c4.142,0,7.5-3.358,7.5-7.5
					c0-27.607-31.045-49.631-72.204-52.518L55.269,122.679c0.03-0.127,0.067-0.253,0.097-0.381L184.86,67.84
					c-8.176,12.768-12.932,27.929-12.932,44.185c0,4.143,3.358,7.5,7.5,7.5h149.4c4.142,0,7.5-3.357,7.5-7.5
					C336.329,76.496,313.669,46.168,282.044,34.714z M254.129,24.287c4.729,0,8.865,2.539,11.152,6.316
					c-3.65-0.498-7.369-0.777-11.152-0.777c-3.785,0-7.504,0.279-11.152,0.777C245.262,26.826,249.399,24.287,254.129,24.287z
					 M35.002,127.056c-2.087,1.314-4.483,2.009-6.932,2.009c-4.519,0-8.65-2.277-11.054-6.093c-1.856-2.947-2.453-6.44-1.682-9.837
					c0.771-3.397,2.819-6.291,5.767-8.147c2.087-1.314,4.483-2.009,6.931-2.009c4.518,0,8.65,2.277,11.055,6.093
					C42.919,115.156,41.086,123.224,35.002,127.056z M202.018,312.041h-130.1c6.303-17.07,33.534-30.348,65.047-30.348
					C168.481,281.694,195.715,294.971,202.018,312.041z M128.423,266.97c-3.384,0.22-6.692,0.581-9.931,1.052L39.006,141.821
					c1.374-0.584,2.711-1.268,3.989-2.072c1.291-0.813,2.489-1.718,3.599-2.695L128.423,266.97z M54.399,106.434
					c-0.67-1.839-1.537-3.635-2.621-5.356c-0.495-0.786-1.034-1.531-1.595-2.255l171.454-72.18l3.657,7.92L54.399,106.434z
					 M187.344,104.526c3.742-33.536,32.266-59.699,66.785-59.699c34.519,0,63.043,26.163,66.783,59.699H187.344z"/>
				<g>
					<g>
						<path d="M254.129,171.367c-4.143,0-7.5-3.357-7.5-7.5v-30.031c0-4.143,3.357-7.5,7.5-7.5c4.142,0,7.5,3.357,7.5,7.5v30.031
							C261.629,168.01,258.271,171.367,254.129,171.367z"/>
					</g>
					<g>
						<g>
							<path d="M200.53,166.215c-1.92,0-3.84-0.732-5.304-2.196c-2.929-2.929-2.929-7.678,0-10.607l24.878-24.879
								c2.929-2.93,7.678-2.929,10.606-0.001c2.929,2.929,2.929,7.678,0,10.606l-24.878,24.879
								C204.368,165.483,202.449,166.215,200.53,166.215z"/>
						</g>
						<g>
							<path d="M307.729,166.215c-1.92,0-3.84-0.732-5.304-2.197l-24.878-24.879c-2.93-2.929-2.93-7.678,0-10.606
								c2.93-2.929,7.678-2.928,10.607,0.001l24.878,24.879c2.93,2.929,2.93,7.678,0,10.607
								C311.567,165.483,309.647,166.215,307.729,166.215z"/>
						</g>
					</g>
				</g>
			</g>
			<g>
				<path d="M153.897,304.367h-16.93c-4.142,0-7.5-3.357-7.5-7.5c0-4.143,3.358-7.5,7.5-7.5h16.93c4.143,0,7.5,3.357,7.5,7.5
					C161.397,301.01,158.04,304.367,153.897,304.367z"/>
			</g>
		</g>
	</g>
</g>
</svg>