<?xml version="1.0" encoding="UTF-8"?>
<svg version="1.1" xmlns="http://www.w3.org/2000/svg" width="512" height="512">
<path d="M0 0 C1.37865234 1.03060547 1.37865234 1.03060547 2.78515625 2.08203125 C24.76542677 19.23962639 39.34363626 44.08472159 43.03344727 71.83129883 C46.27106299 99.89346768 39.90763404 129.12642897 22.21875 151.66015625 C19.58480076 154.87429049 16.81670648 157.94532292 14 161 C13.41863281 161.66257813 12.83726562 162.32515625 12.23828125 163.0078125 C-3.41334709 179.96045781 -29.40267762 191.76829399 -52.26293945 193.20507812 C-55.76142529 193.3032953 -59.25019157 193.32892991 -62.75 193.3125 C-63.9870166 193.30758545 -65.2240332 193.3026709 -66.49853516 193.29760742 C-90.8240299 192.98566007 -113.17088157 184.4367214 -132 169 C-132.84046875 168.33613281 -133.6809375 167.67226562 -134.546875 166.98828125 C-154.57618562 150.24403272 -167.55983951 123.77097765 -170 98 C-172.05186823 68.22076957 -164.65568506 40.00561304 -145 17 C-108.75476263 -23.99246254 -44.66716439 -34.03521235 0 0 Z M-112 31 C-113.23169922 32.09248047 -113.23169922 32.09248047 -114.48828125 33.20703125 C-128.61611439 46.47733279 -136.67868124 64.35990285 -137.3347168 83.65844727 C-137.6657511 103.9277779 -131.09519735 122.18141724 -117.55078125 137.390625 C-103.79583451 151.4615353 -86.23239017 159.84495177 -66.51147461 160.46850586 C-44.03953275 160.70351847 -25.89042443 153.34747624 -9.6015625 137.6953125 C4.36745766 123.1541823 11.36943696 104.10171671 11 84 C9.70087025 63.46463329 1.27060575 45.86734641 -13.49609375 31.5859375 C-30.42024835 16.95019013 -49.40653206 11.45169957 -71.54785156 12.77685547 C-86.42181184 14.13037993 -100.94654518 21.07403784 -112 31 Z " fill="#000000" transform="translate(296,77)"/>
<path d="M0 0 C1.16609299 -0.00101212 1.16609299 -0.00101212 2.35574341 -0.00204468 C15.20822395 0.01562639 27.68279658 0.6882554 40.3125 3.25 C41.13637207 3.41628906 41.96024414 3.58257812 42.80908203 3.75390625 C66.41236918 8.71818086 105.31832196 18.95451168 119.3125 40.25 C121.50160641 44.62821282 121.0591263 50.78523366 119.6640625 55.390625 C117.75721909 59.13912058 115.1330179 61.72515603 111.36328125 63.58984375 C106.04395177 65.30216124 100.56726152 65.14465523 95.5 62.75 C93.15530406 61.42937086 90.91721356 59.99172287 88.6640625 58.51953125 C72.60194177 48.17618615 54.85204225 41.62683468 36.3125 37.25 C35.5695166 37.07210937 34.8265332 36.89421875 34.06103516 36.7109375 C-6.4352861 27.51096188 -51.65489958 36.82480668 -86.6875 58.25 C-97.28804632 64.93175661 -106.73484536 72.50023839 -115.6875 81.25 C-117.05261719 82.52230469 -117.05261719 82.52230469 -118.4453125 83.8203125 C-130.6954199 95.51201045 -140.00348337 109.22387848 -147.6875 124.25 C-148.03796387 124.93175293 -148.38842773 125.61350586 -148.74951172 126.31591797 C-153.1604387 135.00558648 -156.80635082 143.69949192 -159.43432617 153.09912109 C-161.21749897 159.06402235 -164.18833145 164.22859479 -169.71777344 167.42285156 C-173.825684 169.14788887 -178.33534873 168.75532961 -182.6875 168.25 C-187.60756067 165.92415314 -189.99981435 162.92856392 -192.6875 158.25 C-195.21769355 150.65941935 -192.74829018 144.28663137 -190.25 137 C-189.88946533 135.94022949 -189.52893066 134.88045898 -189.1574707 133.78857422 C-180.10895958 107.86054774 -166.03311296 84.97303651 -147.23046875 65.00390625 C-145.43986703 63.06477535 -143.74363451 61.13414234 -142.07421875 59.09765625 C-138.92747664 55.34319636 -135.44919843 52.37215155 -131.6875 49.25 C-131.18492676 48.82444824 -130.68235352 48.39889648 -130.16455078 47.96044922 C-93.46769281 16.98230184 -47.99844622 0.03745068 0 0 Z " fill="#000000" transform="translate(231.6875,286.75)"/>
<path d="M0 0 C3.59507298 3.4746195 5.95028494 6.45338064 6.11352539 11.53173828 C6.11336682 13.04460559 6.10770365 14.55747854 6.09765625 16.0703125 C6.0962413 16.86654022 6.09482635 17.66276794 6.09336853 18.48312378 C6.08776345 21.0304538 6.07521014 23.57769647 6.0625 26.125 C6.05748565 27.85025915 6.05292263 29.57551967 6.04882812 31.30078125 C6.03779237 35.53388791 6.02052436 39.76692914 6 44 C7.58868896 43.9685791 7.58868896 43.9685791 9.20947266 43.93652344 C13.15659957 43.86386615 17.10366792 43.81810746 21.05126953 43.78027344 C22.75644894 43.76021631 24.46156006 43.73296343 26.16650391 43.69824219 C28.62419524 43.64946139 31.08097366 43.62697281 33.5390625 43.609375 C34.29555084 43.58872986 35.05203918 43.56808472 35.83145142 43.54681396 C41.01700354 43.54463891 43.85986986 44.62575916 48 48 C51.85396449 52.16644809 52.78238331 54.73678638 53.3125 60.25 C52.9247687 64.90277558 51.69611535 68.19566545 49 72 C43.20312218 76.70996323 38.6425742 77.15103608 31.390625 77.09765625 C30.66381531 77.0962413 29.93700562 77.09482635 29.18817139 77.09336853 C26.87540506 77.08778792 24.56273688 77.07523904 22.25 77.0625 C20.67838682 77.05748249 19.10677211 77.05292002 17.53515625 77.04882812 C13.69006657 77.03782485 9.8450499 77.02057361 6 77 C6.02094727 78.02359619 6.04189453 79.04719238 6.06347656 80.10180664 C6.13624792 83.92409096 6.18193341 87.74631487 6.21972656 91.5690918 C6.23975797 93.21893637 6.26699142 94.8687107 6.30175781 96.51831055 C6.35065357 98.89910274 6.3730528 101.278951 6.390625 103.66015625 C6.41127014 104.38960953 6.43191528 105.11906281 6.45318604 105.87062073 C6.45554763 111.34382183 5.12649775 114.49062824 2 119 C-2.82749152 122.76544339 -6.54439529 123.59765651 -12.63671875 123.3203125 C-17.26440177 122.69308935 -20.03526457 120.99153364 -23.25 117.6875 C-26.69632553 112.39492866 -27.24522379 107.65297381 -27.1953125 101.4140625 C-27.1924826 100.71227875 -27.18965271 100.010495 -27.18673706 99.28744507 C-27.17562512 97.06644972 -27.15053834 94.84587155 -27.125 92.625 C-27.11495854 91.11068295 -27.10583473 89.59635951 -27.09765625 88.08203125 C-27.07571554 84.38788742 -27.04124875 80.69398449 -27 77 C-28.3912207 77.02356567 -28.3912207 77.02356567 -29.81054688 77.04760742 C-33.28456322 77.09904057 -36.75816906 77.13649682 -40.23242188 77.16479492 C-41.72988307 77.17978888 -43.22730105 77.20019105 -44.72460938 77.22631836 C-63.16146525 77.53974491 -63.16146525 77.53974491 -68.53686523 72.58276367 C-72.72133319 67.8541763 -73.41496826 63.72978643 -73.34375 57.640625 C-72.78814427 53.37256279 -71.02566664 50.04677594 -68 47 C-63.23234223 44.0777422 -59.22537384 43.59178859 -53.7578125 43.70703125 C-52.98944061 43.71127609 -52.22106873 43.71552094 -51.42941284 43.71989441 C-48.99424015 43.73658174 -46.5599192 43.77421359 -44.125 43.8125 C-42.46615785 43.82755977 -40.80730263 43.84124591 -39.1484375 43.85351562 C-35.0986341 43.88645241 -31.04946106 43.93816406 -27 44 C-27.01571045 43.03698975 -27.0314209 42.07397949 -27.04760742 41.08178711 C-27.10221809 37.4830778 -27.13646226 33.88440457 -27.16479492 30.28540039 C-27.17981105 28.7326032 -27.20023028 27.17984791 -27.22631836 25.62719727 C-27.26302073 23.38547376 -27.27979787 21.14431461 -27.29296875 18.90234375 C-27.30845261 18.21663803 -27.32393646 17.53093231 -27.33988953 16.82444763 C-27.34206575 10.48423115 -25.72917889 6.04771184 -21.625 1.1875 C-14.80603468 -4.4949711 -7.65706263 -4.25392368 0 0 Z " fill="#000000" transform="translate(421,332)"/>
</svg>
