<?xml version="1.0" encoding="UTF-8"?>
<svg version="1.1" xmlns="http://www.w3.org/2000/svg" width="512" height="512">
<path d="M0 0 C1.89349163 -0.00407201 3.78698089 -0.0094174 5.6804657 -0.01593018 C10.78955917 -0.02952915 15.89846957 -0.02433744 21.00756598 -0.01479292 C26.36589879 -0.00716439 31.72421658 -0.01425015 37.08255005 -0.01895142 C46.07182616 -0.02439686 55.06102813 -0.01724624 64.05029297 -0.00292969 C74.43874908 0.0134243 84.82702878 0.0080835 95.21548069 -0.0084089 C104.14909114 -0.02202277 113.08264851 -0.02394481 122.01626599 -0.0160929 C127.34610775 -0.01141968 132.67586656 -0.01078253 138.00570297 -0.02070236 C143.01105585 -0.02936931 148.0161809 -0.02335503 153.02150917 -0.00601959 C154.85731058 -0.0020546 156.69313118 -0.00318902 158.52892494 -0.00980759 C161.0356449 -0.01801191 163.54163575 -0.00771558 166.04830933 0.00723267 C166.77359986 0.0005405 167.4988904 -0.00615166 168.24615943 -0.01304662 C172.8959236 0.04069749 176.0819394 0.90710139 180.01611328 3.38818359 C183.46916683 7.93167511 184.68547381 11.46593285 184.40283203 17.17724609 C183.59811407 21.77795686 181.59498742 25.17499982 177.84111977 28.05941677 C174.33710254 29.70756231 171.29563752 29.80740163 167.50350952 29.77345276 C166.75562499 29.77868845 166.00774045 29.78392415 165.23719275 29.7893185 C162.73543749 29.80326786 160.23419905 29.79598161 157.73242188 29.78881836 C155.93674258 29.7945617 154.14106714 29.80164481 152.34539795 29.80996704 C148.47943928 29.82508069 144.61361871 29.83085432 140.74763107 29.82943916 C134.62803232 29.82740455 128.50861883 29.84698076 122.3890686 29.86961365 C110.49442869 29.9106045 98.59980328 29.92918827 86.70510864 29.94578552 C71.58663447 29.96813056 56.46820326 30.00180827 41.3497988 30.05298465 C35.27384866 30.07284478 29.19799514 30.08248228 23.12201381 30.08393681 C19.33021638 30.08669974 15.53847168 30.09755797 11.74669647 30.11044693 C9.99685534 30.11470367 8.24700207 30.11560224 6.49715805 30.11277199 C-9.33289668 30.0901186 -23.84781098 30.84142295 -36.09326172 42.09130859 C-42.95207552 50.42391709 -46.13626519 59.88198093 -46.12432861 70.50857544 C-46.12729974 71.33389861 -46.13027086 72.15922178 -46.13333201 73.00955474 C-46.14201369 75.77916653 -46.14352683 78.54873506 -46.14501953 81.31835938 C-46.14964816 83.30269971 -46.15467288 85.28703916 -46.1600647 87.27137756 C-46.17318825 92.66626785 -46.17963382 98.06114569 -46.18407536 103.45604944 C-46.18700675 106.82778624 -46.19111174 110.19951964 -46.19557953 113.57125473 C-46.20925567 124.12397214 -46.21892119 134.67668177 -46.22278142 145.22940743 C-46.2272596 157.4042454 -46.24479592 169.57897096 -46.27378201 181.75377476 C-46.29541599 191.16794887 -46.30548665 200.58209139 -46.30682254 209.99629009 C-46.30786953 215.61702792 -46.31375466 221.23766011 -46.33164215 226.85837173 C-46.34815194 232.14923295 -46.35026416 237.43990944 -46.34150314 242.73078728 C-46.34073427 244.6681143 -46.34505564 246.60545137 -46.3549614 248.54275322 C-46.65422999 265.31805556 -46.65422999 265.31805556 -39.85888672 280.32568359 C-38.05209009 282.80216355 -36.96464248 284.44591632 -35.98388672 287.38818359 C-34.17194149 288.45109585 -34.17194149 288.45109585 -31.98388672 289.38818359 C-29.58166117 290.89161727 -27.19332905 292.41434983 -24.81201172 293.95068359 C-18.81390953 296.99944272 -12.76263038 297.68383522 -6.1184082 297.64355469 C-5.00698456 297.64898537 -5.00698456 297.64898537 -3.87310791 297.65452576 C-2.27939005 297.66136938 -0.68564901 297.66393474 0.90808296 297.66257858 C3.43537627 297.66160556 5.9622533 297.67464493 8.48948669 297.69155884 C15.66947288 297.73760834 22.84941196 297.76244211 30.02954102 297.76904297 C34.43504638 297.77406762 38.84011053 297.79835707 43.24546623 297.83436966 C44.91709681 297.84413731 46.58878827 297.84651623 48.26043892 297.84119797 C50.60078053 297.83409753 52.93981146 297.85146616 55.2800293 297.87402344 C56.30343666 297.86176476 56.30343666 297.86176476 57.34751892 297.84925842 C62.70191152 297.94062561 65.70822421 299.41572395 70.01611328 302.38818359 C75.11238504 308.01155406 74.44962219 315.40408745 74.15283203 322.50927734 C74.10749077 324.22003197 74.10749077 324.22003197 74.06123352 325.96534729 C73.96174398 329.58635994 73.83381967 333.20565708 73.70361328 336.82568359 C73.58967043 340.47065542 73.48158154 344.1157175 73.37812805 347.76100159 C73.31204259 350.02484844 73.23880135 352.28849942 73.15788269 354.55186462 C73.12487564 355.56704666 73.09186859 356.5822287 73.05786133 357.62817383 C73.025811 358.52559799 72.99376068 359.42302216 72.96073914 360.34764099 C72.78193839 362.38323033 72.78193839 362.38323033 74.01611328 363.38818359 C77.90200233 363.76071376 79.77239617 363.27757959 82.77392578 360.81787109 C83.47171143 360.2585791 84.16949707 359.69928711 84.88842773 359.12304688 C85.63181396 358.50929199 86.3752002 357.89553711 87.14111328 357.26318359 C88.76043134 355.96409209 90.38158215 354.66728239 92.00439453 353.37255859 C92.83535645 352.70675781 93.66631836 352.04095703 94.52246094 351.35498047 C98.38556763 348.3080657 102.35185936 345.40923442 106.32861328 342.51318359 C113.11875309 337.54905787 119.83761237 332.50148764 126.51611328 327.38818359 C135.57111277 320.45765211 144.71763017 313.66084331 153.92480469 306.93408203 C156.73953139 304.85343185 159.51202915 302.71845185 162.27856445 300.57421875 C165.25197981 298.54459225 167.84226868 298.26180458 171.33375549 298.25015259 C172.21532822 298.24469925 173.09690094 298.23924591 174.00518799 298.23362732 C175.452211 298.23206383 175.452211 298.23206383 176.9284668 298.23046875 C177.94672043 298.22538803 178.96497406 298.22030731 180.01408386 298.21507263 C182.22885334 298.20436215 184.44363369 298.19574464 186.65841866 298.1889534 C190.16897859 298.17716564 193.67941543 298.15771081 197.18992615 298.13583374 C207.17271803 298.0742288 217.15549869 298.02025708 227.13842773 297.98681641 C233.24335624 297.96581507 239.34806254 297.93046269 245.45286369 297.88605881 C247.77512932 297.87193651 250.09743429 297.86318493 252.41974068 297.86000443 C255.67939438 297.85506957 258.93846399 297.83184298 262.19799805 297.8046875 C263.14851044 297.80769363 264.09902283 297.81069977 265.07833862 297.813797 C276.19549967 297.67697136 286.41382516 294.28256774 294.80126953 286.79443359 C301.05700487 280.01072059 305.12808261 271.46397279 305.15414429 262.22224426 C305.1623243 260.65585205 305.1623243 260.65585205 305.17066956 259.05781555 C305.17171188 257.91749374 305.17275421 256.77717194 305.17382812 255.60229492 C305.17890884 254.39697113 305.18398956 253.19164734 305.18922424 251.94979858 C305.19992965 249.33013766 305.20893023 246.71052961 305.21534348 244.09086037 C305.22605029 239.94201586 305.24630361 235.79325213 305.26846313 231.64445496 C305.33029292 219.84739905 305.38433465 208.0503478 305.41748047 196.25317383 C305.4358719 189.73584357 305.46486524 183.21864872 305.50548518 176.7014181 C305.52648162 173.25657228 305.5420019 169.81189657 305.54429245 166.36698341 C305.54685457 162.51819595 305.57239347 158.66974077 305.59960938 154.82104492 C305.59660324 153.69084427 305.59359711 152.56064362 305.59049988 151.39619446 C305.65725663 145.02706082 306.11540689 139.16388571 309.01611328 133.38818359 C312.78078733 129.71533086 315.50781285 128.22686309 320.70361328 128.07568359 C326.0242864 128.1448831 328.80594306 129.12315363 333.01611328 132.38818359 C337.03240268 138.09089695 336.43864875 144.19673455 336.40429688 150.88842773 C336.41218231 152.77499588 336.41218231 152.77499588 336.42022705 154.69967651 C336.43387076 158.14025574 336.42861176 161.58056418 336.41908979 165.02114797 C336.41146624 168.63588617 336.41854734 172.25060201 336.42324829 175.86534119 C336.42870292 181.9422519 336.42152709 188.01905319 336.40722656 194.09594727 C336.39095198 201.0918502 336.3961517 208.08749009 336.41270578 215.08338648 C336.42639076 221.11085966 336.42820477 227.13825432 336.42038977 233.16573805 C336.41574489 236.75600856 336.41499845 240.34615622 336.42499924 243.93641853 C336.43540256 247.95182546 336.42091819 251.96679166 336.40429688 255.98217773 C336.41036957 257.15095963 336.41644226 258.31974152 336.42269897 259.52394104 C336.34055365 270.31666373 334.50666901 280.7987746 329.51611328 290.45068359 C329.17644531 291.11769287 328.83677734 291.78470215 328.48681641 292.47192383 C324.72468009 299.48066308 319.70993273 304.90462336 314.01611328 310.38818359 C313.03191406 311.40138672 313.03191406 311.40138672 312.02783203 312.43505859 C300.36381136 323.72443192 283.02183225 328.62617671 267.13702393 328.42054749 C266.27566833 328.40430832 265.41431274 328.38806915 264.52685547 328.37133789 C262.60749078 328.34525503 260.68811767 328.31978613 258.76873779 328.29484558 C257.75854332 328.28044119 256.74834885 328.2660368 255.70754242 328.25119591 C249.16961737 328.17053919 242.63112229 328.15889095 236.09278488 328.136096 C230.37246871 328.11230584 224.65452153 328.06362133 218.93505859 327.9597168 C213.37587783 327.86010673 207.82005258 327.83080691 202.26004791 327.84665871 C200.15988632 327.84057816 198.05962786 327.810216 195.96022797 327.75333214 C179.96584224 327.3409017 170.89276724 331.15906801 158.89373779 341.74680519 C156.43507436 343.89611514 153.86252165 345.82561812 151.23486328 347.76318359 C149.66100013 348.97028387 148.08805984 350.1785885 146.51611328 351.38818359 C139.13982556 357.03693925 131.70616565 362.59635951 124.2043457 368.07714844 C119.90843695 371.22523354 115.65619766 374.42050814 111.44189453 377.67724609 C110.50603516 378.39912109 109.57017578 379.12099609 108.60595703 379.86474609 C106.80579756 381.25727452 105.00993392 382.65538117 103.21923828 384.06005859 C92.20525608 392.57478036 82.95089 395.59513276 69.01611328 394.38818359 C59.88760082 391.95949679 52.64537895 387.47602335 47.26611328 379.70068359 C41.17785366 368.73589228 41.78289275 357.81520166 42.32861328 345.70068359 C42.39201149 344.01649641 42.45387233 342.33225061 42.51416016 340.64794922 C42.66377192 336.56046949 42.83413075 332.47434481 43.01611328 328.38818359 C41.97613441 328.39817635 41.97613441 328.39817635 40.91514587 328.40837097 C34.31231417 328.46901986 27.70956262 328.5144269 21.10651302 328.54362011 C17.71354521 328.55913425 14.3208116 328.58010361 10.92797852 328.61450195 C-24.98945893 328.95191019 -24.98945893 328.95191019 -38.35888672 321.63818359 C-39.35746704 321.11430054 -39.35746704 321.11430054 -40.3762207 320.57983398 C-45.69950793 317.71274952 -50.49199697 314.45049553 -54.98388672 310.38818359 C-55.59361328 309.85837891 -56.20333984 309.32857422 -56.83154297 308.78271484 C-69.35616284 297.19400063 -76.48202896 279.73904503 -77.26038742 262.86795044 C-77.40903423 257.61581028 -77.39010194 252.3645514 -77.37207031 247.11083984 C-77.37614362 245.10195634 -77.38148974 243.09307508 -77.38800049 241.084198 C-77.40158954 235.66684775 -77.39641039 230.24967034 -77.38686323 224.83231735 C-77.3792228 219.14007887 -77.38632435 213.44785435 -77.39102173 207.75561523 C-77.39646657 198.199843 -77.38932111 188.64414053 -77.375 179.08837891 C-77.35867599 168.06952225 -77.36396539 157.05083218 -77.38047922 146.03197956 C-77.39413038 136.54024749 -77.39599603 127.04856532 -77.38816321 117.55682659 C-77.38350662 111.9014736 -77.38280609 106.24619869 -77.39277267 100.59085083 C-77.40149307 95.27191567 -77.39532844 89.95319352 -77.3780899 84.63428116 C-77.37415201 82.69218422 -77.37521232 80.75006908 -77.3818779 78.80797958 C-77.44646319 58.0643485 -74.17594938 41.06905622 -60.98388672 24.38818359 C-60.24138672 23.35693359 -59.49888672 22.32568359 -58.73388672 21.26318359 C-42.34486646 4.12920787 -22.6311426 -0.08218446 0 0 Z " fill="#000000" transform="translate(93.98388671875,97.61181640625)"/>
<path d="M0 0 C0.95519531 0.12503906 1.91039062 0.25007813 2.89453125 0.37890625 C11.67147176 3.20043754 16.6275765 8.51097793 21.125 16.3125 C22.56029292 18.69983614 23.99773093 21.08421353 25.4609375 23.45458984 C26.79987746 25.76782067 27.95112974 28.02935818 29.0859375 30.43994141 C32.15677442 36.56923195 34.99098552 41.91595946 41.61010742 44.55908203 C46.75532881 46.17193063 52.00842891 47.13612033 57.3125 48.0625 C60.0207115 48.58690426 62.72338139 49.13033909 65.42355347 49.69467163 C67.0900865 50.0376766 68.76200765 50.35589232 70.43899536 50.64346313 C77.64816706 52.03386754 82.43299921 55.60855325 87.5 60.8125 C92.01115836 67.82985745 93.35363894 74.5045124 91.7421875 82.703125 C89.08967122 91.13533465 82.62426276 97.22344909 76.81201172 103.62304688 C73.10993289 107.75798072 69.64109973 112.0943367 66.1875 116.4375 C65.65753418 117.04625977 65.12756836 117.65501953 64.58154297 118.28222656 C62.90246709 120.87817786 62.88764096 122.1367731 63.078125 125.19140625 C63.15305176 126.5832312 63.15305176 126.5832312 63.22949219 128.00317383 C63.29813477 128.99212646 63.36677734 129.9810791 63.4375 131 C63.52112793 132.530802 63.52112793 132.530802 63.60644531 134.0925293 C63.87997952 139.00888649 64.21975324 143.91850092 64.59375 148.828125 C65.36322251 159.39705618 65.93017986 168.04422967 59.0625 176.8125 C53.70279951 182.32852509 48.17124914 184.61322272 40.5 184.97265625 C31.311906 184.86532172 23.57520566 181.02138302 15.3125 177.375 C12.98000297 176.35441177 10.64532793 175.34140247 8.30099487 174.34828186 C6.85468337 173.73496228 5.41487646 173.10597755 3.98342896 172.45872498 C-2.19603867 169.82667698 -6.25031515 170.51191115 -12.43017578 172.74438477 C-13.70887247 173.2825789 -14.98465512 173.8277362 -16.2578125 174.37890625 C-17.67932738 174.96896727 -19.10121488 175.55813127 -20.5234375 176.14648438 C-22.72579567 177.06722636 -24.92459833 177.99444656 -27.1171875 178.93823242 C-37.11500962 183.22091863 -46.86703448 187.14494571 -57.77368164 183.4284668 C-65.00696786 180.24899268 -69.14475702 175.82178775 -72.19946289 168.48046875 C-73.34671911 164.65719513 -73.16265118 160.83286829 -73.0625 156.875 C-73.05154297 155.99384521 -73.04058594 155.11269043 -73.02929688 154.20483398 C-72.94415516 149.12270648 -72.69978832 144.06892063 -72.3125 139 C-72.23386719 137.90171875 -72.15523438 136.8034375 -72.07421875 135.671875 C-71.8960081 133.46951054 -71.66733857 131.27078193 -71.39453125 129.078125 C-70.99111729 124.09683955 -70.89617374 120.8119894 -73.7265625 116.56640625 C-76.32053366 113.73552442 -79.04237036 111.09527473 -81.8125 108.4375 C-99.85872642 87.70353774 -99.85872642 87.70353774 -101.1875 76.1875 C-100.28163594 67.12885942 -97.4599296 61.16767037 -90.50805664 55.25952148 C-85.79622867 52.07463133 -80.73638178 50.94516356 -75.25 49.6875 C-74.10047852 49.3891626 -72.95095703 49.0908252 -71.76660156 48.78344727 C-66.87468026 47.53158576 -62.08180014 46.37579959 -57.05078125 45.88671875 C-51.61241809 45.26491538 -47.62687862 44.47652483 -43.90771484 40.296875 C-39.93260412 34.91481478 -36.64338361 29.18540748 -33.42871094 23.32739258 C-28.42732049 14.38457404 -23.5252146 5.95368384 -14.1875 1.0625 C-9.28539529 -0.22752755 -5.03489335 -0.74815684 0 0 Z M-4.8125 34.4375 C-5.82313188 35.8980681 -6.78463121 37.39264821 -7.7265625 38.8984375 C-8.32339844 39.84589844 -8.92023438 40.79335938 -9.53515625 41.76953125 C-10.16292969 42.77371094 -10.79070312 43.77789062 -11.4375 44.8125 C-15.04648091 50.57609637 -18.67295211 56.3284607 -22.4609375 61.9765625 C-22.98606934 62.76498535 -23.51120117 63.5534082 -24.05224609 64.36572266 C-28.12561144 69.15997762 -33.3057618 70.30132526 -39.17578125 71.69921875 C-39.96776413 71.89473831 -40.75974701 72.09025787 -41.57572937 72.29170227 C-44.09031654 72.91060191 -46.60752922 73.5179486 -49.125 74.125 C-50.83677512 74.54416067 -52.54836599 74.9640745 -54.25976562 75.38476562 C-58.44192773 76.41107561 -62.62648183 77.42703812 -66.8125 78.4375 C-63.54569159 82.88599305 -60.26330353 87.20320844 -56.5 91.25 C-55.35917969 92.51263672 -55.35917969 92.51263672 -54.1953125 93.80078125 C-52.57248079 95.59653766 -50.94194114 97.38535147 -49.3046875 99.16796875 C-48.50289063 100.08191406 -47.70109375 100.99585937 -46.875 101.9375 C-46.14410156 102.7521875 -45.41320312 103.566875 -44.66015625 104.40625 C-39.44293296 112.96558461 -40.84204873 122.5960011 -41.6875 132.1875 C-41.89483744 134.74466178 -42.10062353 137.30194992 -42.3046875 139.859375 C-42.40120605 140.97924805 -42.49772461 142.09912109 -42.59716797 143.25292969 C-42.80496324 146.32603802 -42.85024685 149.35851877 -42.8125 152.4375 C-42.12325439 152.15551758 -41.43400879 151.87353516 -40.72387695 151.58300781 C-18.40413246 142.4783864 -18.40413246 142.4783864 -10.3125 139.6875 C-9.4359375 139.38328125 -8.559375 139.0790625 -7.65625 138.765625 C1.29043468 137.73331523 10.05869875 142.67164227 18.0625 146.0625 C20.47401629 147.08187913 22.88839946 148.09344233 25.3046875 149.1015625 C26.36284668 149.54967285 27.42100586 149.9977832 28.51123047 150.45947266 C31.18222707 151.60912119 31.18222707 151.60912119 34.1875 151.4375 C34.15720703 150.83502441 34.12691406 150.23254883 34.09570312 149.61181641 C33.74749748 142.55529501 33.45246389 135.49761378 33.1875 128.4375 C33.15060059 127.52693848 33.11370117 126.61637695 33.07568359 125.67822266 C32.98531197 123.2437501 32.92463228 120.81060097 32.875 118.375 C32.84535156 117.65715332 32.81570313 116.93930664 32.78515625 116.19970703 C32.69361303 108.20302494 37.91542676 103.40696359 42.875 97.75 C48.09379509 91.73438086 53.18130614 85.63203281 58.1875 79.4375 C54.61746043 77.39571155 50.99734179 76.5643548 47.0078125 75.6328125 C45.58974508 75.2933807 44.17177941 74.95352357 42.75390625 74.61328125 C40.53449481 74.0862507 38.31438728 73.56293789 36.09228516 73.04736328 C33.93641931 72.54491865 31.78460312 72.02739373 29.6328125 71.5078125 C28.34906738 71.20633301 27.06532227 70.90485352 25.74267578 70.59423828 C19.45755259 68.54926412 15.88019874 65.67124428 12.49609375 60.04296875 C11.86123047 59.00462891 11.22636719 57.96628906 10.57226562 56.89648438 C9.92966797 55.81689453 9.28707031 54.73730469 8.625 53.625 C7.33403775 51.49227374 6.04111508 49.36073273 4.74609375 47.23046875 C4.13878418 46.23063965 3.53147461 45.23081055 2.90576172 44.20068359 C0.80300631 40.8191852 -1.39108225 37.59841964 -3.8125 34.4375 C-4.1425 34.4375 -4.4725 34.4375 -4.8125 34.4375 Z " fill="#000000" transform="translate(402.8125,20.5625)"/>
<path d="M0 0 C0.65270154 -0.00226556 1.30540308 -0.00453111 1.97788346 -0.00686532 C4.15715899 -0.01317733 6.33637188 -0.01237777 8.51565552 -0.0115509 C10.08137085 -0.01454413 11.64708545 -0.01794704 13.21279907 -0.02172852 C17.46077536 -0.0305558 21.70873149 -0.03290609 25.95671606 -0.0335443 C28.61199623 -0.0342555 31.2672713 -0.03639113 33.9225502 -0.03904152 C43.18959122 -0.04829055 52.45661785 -0.05237694 61.72366333 -0.05158997 C70.35611629 -0.05098921 78.98850676 -0.06154181 87.6209439 -0.07733363 C95.03765623 -0.09041702 102.45434816 -0.09577353 109.87107193 -0.09513456 C114.29839725 -0.09487981 118.72566701 -0.0977179 123.1529808 -0.10831261 C127.31772033 -0.11800709 131.48235133 -0.11806352 135.64709473 -0.11079597 C137.17286462 -0.10975183 138.69864132 -0.11210291 140.22439957 -0.11815643 C142.3128123 -0.12590361 144.40085278 -0.12121388 146.48925781 -0.11352539 C147.65620619 -0.11407016 148.82315456 -0.11461493 150.02546501 -0.1151762 C155.22134755 0.27129745 159.17165585 1.120416 163.18411255 4.50871277 C166.75536741 8.7942186 167.79247213 11.36512179 167.62161255 17.11027527 C167.059896 21.65666857 165.14583097 24.43502785 161.80911255 27.44621277 C157.83950082 30.1944055 155.634414 30.26405459 150.79354858 30.28088379 C150.11003633 30.28456048 149.42652408 30.28823717 148.72229934 30.29202527 C146.42082593 30.303081 144.11939763 30.30690914 141.81790161 30.31071472 C140.17218888 30.31697798 138.52647757 30.32362465 136.88076782 30.33062744 C132.40129234 30.34805059 127.92182753 30.3585929 123.44232655 30.36683297 C120.64451982 30.37198062 117.84671643 30.37805648 115.04891205 30.3843441 C106.29769864 30.40340034 97.5464937 30.41763023 88.79526353 30.42595607 C78.68899416 30.43572939 68.58294377 30.46204953 58.47675157 30.50245696 C50.66861224 30.53260609 42.86053572 30.54742382 35.05233932 30.55073708 C30.38738662 30.55308906 25.72266773 30.56206844 21.0577774 30.58719826 C16.66810894 30.61046284 12.27882849 30.61471879 7.88911438 30.60443687 C6.2790625 30.603941 4.66899164 30.61027673 3.05899811 30.62399292 C0.85807102 30.64169238 -1.34146062 30.63461688 -3.54238892 30.62145996 C-4.77315029 30.62384831 -6.00391167 30.62623667 -7.27196884 30.6286974 C-12.50501285 29.85695923 -15.56243935 27.3399172 -19.00338745 23.44621277 C-21.11300161 19.14584544 -21.43818089 15.83705848 -20.62838745 11.13371277 C-19.27174154 7.36847625 -17.39688393 4.7248639 -14.19088745 2.25871277 C-9.49550544 0.19732555 -5.08860126 0.00731242 0 0 Z " fill="#000000" transform="translate(153.62838745117188,209.8662872314453)"/>
<path d="M0 0 C0.87837524 -0.0049649 1.75675049 -0.00992981 2.66174316 -0.01504517 C5.57097148 -0.02966385 8.48014526 -0.03646846 11.3894043 -0.04199219 C13.41098533 -0.04774406 15.43256634 -0.05350179 17.45414734 -0.05926514 C21.69518284 -0.06977441 25.9361994 -0.0756175 30.17724609 -0.07910156 C35.60793768 -0.08458485 41.03837836 -0.10860975 46.46899128 -0.13707352 C50.64603911 -0.15571038 54.82302664 -0.16090607 59.00011253 -0.16243744 C61.00195881 -0.16546233 63.00380406 -0.17348534 65.00560951 -0.18662262 C67.80862051 -0.2037042 70.61102037 -0.20179762 73.4140625 -0.1953125 C74.65101112 -0.20913467 74.65101112 -0.20913467 75.91294861 -0.22323608 C82.38369712 -0.17641103 86.47598851 1.27877904 91.21362305 5.91113281 C94.42268757 10.67888581 94.68977476 14.10448937 93.90112305 19.72363281 C91.98529902 24.11406289 89.35881299 26.53442546 85.40112305 29.16113281 C81.52309664 30.45380828 77.84452027 30.31682604 73.80224609 30.32226562 C72.92387085 30.32723053 72.04549561 30.33219543 71.14050293 30.33731079 C68.23127461 30.35192947 65.32210083 30.35873408 62.4128418 30.36425781 C60.39126077 30.37000969 58.36967975 30.37576742 56.34809875 30.38153076 C52.10706325 30.39204004 47.8660467 30.39788313 43.625 30.40136719 C38.19430842 30.40685048 32.76386773 30.43087538 27.33325481 30.45933914 C23.15620699 30.477976 18.97921945 30.48317169 14.80213356 30.48470306 C12.80028729 30.48772796 10.79844203 30.49575096 8.79663658 30.50888824 C5.99362558 30.52596982 3.19122573 30.52406325 0.38818359 30.51757812 C-0.43644882 30.52679291 -1.26108124 30.53600769 -2.11070251 30.54550171 C-7.01300703 30.51002657 -10.34485009 29.85877529 -14.59887695 27.16113281 C-19.04469617 22.23468449 -19.94974677 19.20974502 -19.8840332 12.70410156 C-19.3631444 8.05891509 -16.93998482 5.33968215 -13.53637695 2.34863281 C-9.20992412 -0.30306408 -4.89880116 0.00659219 0 0 Z " fill="#000000" transform="translate(152.598876953125,282.8388671875)"/>
</svg>
