<?xml version="1.0" encoding="UTF-8"?>
<svg version="1.1" xmlns="http://www.w3.org/2000/svg" width="512" height="512">
<path d="M0 0 C2.13416119 -0.00389605 4.26832162 -0.00823257 6.40248108 -0.01298523 C10.84590182 -0.02039649 15.289243 -0.02019105 19.73266602 -0.01489258 C25.41393589 -0.0090693 31.09488277 -0.02612242 36.77609921 -0.04923725 C41.17110583 -0.06398508 45.5660345 -0.06484545 49.96106148 -0.06172752 C52.05614429 -0.06223904 54.15123165 -0.06744474 56.24629021 -0.07753944 C59.1721385 -0.08992282 62.09735465 -0.0831034 65.02319336 -0.0715332 C65.87788712 -0.07917694 66.73258087 -0.08682068 67.61317444 -0.09469604 C75.25668044 -0.02813563 82.02249349 1.72561849 87.59765625 7.30078125 C91.83296689 13.4248115 93.35254488 18.87321638 92.59765625 26.30078125 C91.18197638 31.95309132 88.84968422 37.05171518 83.92578125 40.45703125 C79.40871857 43.15954738 75.70441457 44.42272378 70.49711609 44.43208313 C69.68870773 44.43609131 68.88029938 44.44009949 68.0473938 44.44422913 C67.1689682 44.44370041 66.2905426 44.44317169 65.38549805 44.44262695 C64.45315842 44.44610138 63.52081879 44.44957581 62.56022644 44.45315552 C60.53482852 44.46050582 58.50942258 44.46585507 56.48401451 44.46944618 C53.26603624 44.47663136 50.04820872 44.49231704 46.83027649 44.51078796 C37.68008597 44.56313456 28.52997543 44.61114084 19.37963867 44.62670898 C13.77921634 44.6368609 8.17917031 44.66637343 2.57889748 44.70802879 C0.45614294 44.72024878 -1.66666499 44.72547673 -3.78945351 44.72323036 C-25.64564432 44.70580634 -44.53461255 48.22135004 -60.671875 64.27734375 C-72.60250406 76.96065454 -77.73289514 93.8690048 -77.66976929 110.97549438 C-77.6743004 111.89563241 -77.67883151 112.81577044 -77.68349993 113.76379144 C-77.69606669 116.81865425 -77.69452857 119.87333701 -77.69287109 122.92822266 C-77.69886124 125.13031236 -77.7056679 127.33239998 -77.71322632 129.53448486 C-77.73084575 135.49759804 -77.73558004 141.46065376 -77.73685789 147.42379045 C-77.73828255 151.15575661 -77.74255816 154.88770831 -77.74785233 158.61967087 C-77.76538767 170.98582638 -77.77469424 183.35195137 -77.77319138 195.71811886 C-77.77307151 196.71592395 -77.77307151 196.71592395 -77.77294922 197.73388672 C-77.77286746 198.39991368 -77.7727857 199.06594063 -77.77270146 199.75215022 C-77.77188945 210.53339824 -77.79101021 221.31450625 -77.81922595 232.09571381 C-77.84804821 243.19735549 -77.86139597 254.29893957 -77.8600384 265.40062082 C-77.85953032 271.62063585 -77.86512779 277.84049239 -77.8863945 284.0604744 C-77.90587002 289.9161705 -77.90583787 295.77155846 -77.89136124 301.62726593 C-77.88928344 303.7652596 -77.89391191 305.90327303 -77.90608215 308.04123306 C-78.01936917 329.33745433 -74.98904271 349.13446012 -59.72998047 365.23950195 C-48.27180556 376.66079016 -32.31227475 383.44607562 -16.15222168 383.57975769 C-14.84505188 383.57592827 -14.84505188 383.57592827 -13.51147461 383.57202148 C-12.5671608 383.57724823 -11.62284698 383.58247498 -10.6499176 383.58786011 C-8.61532677 383.59804081 -6.58071033 383.60387007 -4.54609489 383.6057415 C-1.3211812 383.60942759 1.90343112 383.62621388 5.12828064 383.64649963 C14.29159946 383.70170856 23.45496106 383.73261288 32.6184082 383.75708008 C38.23746486 383.77298265 43.85630438 383.80322309 49.47524834 383.84184456 C51.60937631 383.85346302 53.74354312 383.85942463 55.87770271 383.85952568 C58.86409243 383.85971844 61.84988503 383.87803487 64.83618164 383.90014648 C65.7096524 383.89556931 66.58312317 383.89099213 67.48306274 383.88627625 C75.17835138 383.97653251 81.97739225 385.68051725 87.59765625 391.30078125 C91.83296689 397.4248115 93.35254488 402.87321638 92.59765625 410.30078125 C91.18197638 415.95309132 88.84968422 421.05171518 83.92578125 424.45703125 C79.43939434 427.14119436 75.7355778 428.41882015 70.56199646 428.44122314 C69.7677829 428.44693329 68.97356934 428.45264343 68.1552887 428.45852661 C66.86110268 428.4602034 66.86110268 428.4602034 65.54077148 428.46191406 C64.6246106 428.46687897 63.70844971 428.47184387 62.76452637 428.47695923 C59.72842657 428.49157774 56.69237925 428.49838722 53.65625 428.50390625 C52.0920869 428.50814732 52.0920869 428.50814732 50.49632454 428.51247406 C44.96312328 428.52747634 39.4299481 428.5366954 33.89672852 428.54101562 C28.22857601 428.54645937 22.56066874 428.57039674 16.89259243 428.59898758 C12.49712989 428.61779895 8.1017238 428.62282958 3.70622444 428.6243515 C1.62022646 428.62734403 -0.46577136 428.63525464 -2.5517292 428.64853668 C-37.306113 428.85378236 -66.54968088 420.41216737 -92.08984375 396.05078125 C-110.45625778 376.99028762 -121.76172036 351.55096809 -121.66976929 324.91184998 C-121.67656596 323.43447274 -121.67656596 323.43447274 -121.68349993 321.92724949 C-121.69606131 318.65905154 -121.69452892 315.391022 -121.69287109 312.12280273 C-121.6988616 309.76617725 -121.70566834 307.40955372 -121.71322632 305.05293274 C-121.73084261 298.67240317 -121.73557992 292.2919273 -121.73685789 285.91137576 C-121.73828278 281.91757261 -121.74243205 277.92377852 -121.74785233 273.92997932 C-121.76544618 260.69446218 -121.77469436 247.45897731 -121.77319138 234.22344839 C-121.77311147 233.51154392 -121.77303155 232.79963944 -121.77294922 232.06616211 C-121.77286746 231.35337544 -121.7727857 230.64058877 -121.77270146 229.9062025 C-121.77188957 218.36978952 -121.79100749 206.83350741 -121.81922595 195.29713225 C-121.84805598 183.41573744 -121.86176064 171.53440624 -121.8600384 159.65297562 C-121.85937787 152.99697613 -121.86511772 146.34109462 -121.8863945 139.68511772 C-121.9058816 133.41819996 -121.90583002 127.15157007 -121.89136124 120.88464165 C-121.88928483 118.59751969 -121.8939034 116.31037921 -121.90608215 114.02328873 C-122.06667679 81.74842985 -112.79820601 54.25969707 -90.15234375 30.61328125 C-64.75214237 6.17090869 -34.15177856 -0.0261869 0 0 Z " fill="#000000" transform="translate(185.40234375,41.69921875)"/>
<path d="M0 0 C4.34280863 2.71403685 7.78048887 6.39544831 11.36326027 10.02108383 C12.6745163 11.32423538 12.6745163 11.32423538 14.01226234 12.65371323 C16.39138629 15.02252109 18.76126304 17.3998717 21.12692094 19.78208303 C23.61224137 22.28132763 26.10778499 24.7703294 28.60183144 27.26086044 C32.78552858 31.44186202 36.96109827 35.63084701 41.13181496 39.82479477 C45.94631922 44.66593073 50.77316199 49.49448788 55.60686141 54.31645286 C60.26872728 58.96752336 64.92204382 63.6270567 69.57144165 68.29058838 C71.54513794 70.27002657 73.52169862 72.24653671 75.50064468 74.22072601 C78.26441567 76.97881925 81.01559507 79.74926554 83.76560402 82.52108383 C84.5838163 83.33479446 85.40202858 84.1485051 86.24503517 84.98687363 C92.1533902 90.97327244 95.66340966 95.57204478 95.74094582 104.27547836 C95.78735207 106.00411118 95.78735207 106.00411118 95.83469582 107.76766586 C94.41360504 116.46249757 87.62824489 122.45093525 81.61448097 128.43099594 C80.75692711 129.29541306 79.89937325 130.15983017 79.0158329 131.05044174 C76.68045507 133.40090193 74.338588 135.74447229 71.99280787 138.08452439 C70.02922628 140.04499935 68.07027727 142.01007144 66.11126268 143.97510833 C61.48876812 148.61160691 56.85857402 153.24031359 52.22336769 157.86410141 C47.45198273 162.62399142 42.69354669 167.39654941 37.94131243 172.17555314 C33.8481859 176.29086508 29.74731222 180.39834185 25.64014661 184.49964255 C23.19256305 186.94386429 20.7479288 189.39085503 18.31066704 191.84537315 C15.59380559 194.58063239 12.8608445 197.29944805 10.12619972 200.01693344 C9.32700615 200.82579498 8.52781258 201.63465652 7.70440102 202.46802902 C2.08883716 208.01008374 -2.8496643 211.80066786 -11.07155418 211.90047836 C-17.79018659 211.6879219 -23.7572227 209.55412661 -28.45827293 204.61532211 C-31.98949792 199.84968611 -32.94208891 196.02528782 -33.07155418 190.21297836 C-33.108937 189.12629868 -33.14631981 188.03961899 -33.18483543 186.92000961 C-31.97180876 176.89306437 -24.70883345 170.8196641 -17.86842918 164.11922836 C-16.79709902 163.05537108 -15.72665785 161.99061788 -14.65706444 160.9250145 C-11.85796656 158.14109046 -9.0470633 155.369397 -6.23341942 152.60018539 C-3.35704783 149.76494555 -0.49215661 146.91815572 2.37375832 144.07235336 C7.98506147 138.50377525 13.60890519 132.94808146 19.24094582 127.40047836 C17.99330247 127.39827852 17.99330247 127.39827852 16.72045422 127.39603424 C-3.5366072 127.35895075 -23.79350151 127.2999155 -44.05042744 127.21657562 C-53.84661629 127.17679971 -63.64272498 127.14439985 -73.43898582 127.12948227 C-81.97937786 127.11645826 -90.51959341 127.08947443 -99.05988604 127.0458653 C-103.58015879 127.02326736 -108.100214 127.00756668 -112.62054825 127.00859451 C-116.87978376 127.00934211 -121.13853866 126.99135149 -125.39764977 126.95931053 C-126.95641512 126.95082821 -128.51523448 126.94905025 -130.07401276 126.95467567 C-147.92573969 127.01049303 -147.92573969 127.01049303 -154.62434864 120.62136078 C-160.3673108 114.33531082 -161.27027261 109.38320161 -161.13796043 100.88875961 C-160.44783623 94.53534814 -157.41952969 90.73523431 -152.82155418 86.52547836 C-147.64437589 82.93315057 -143.08097926 82.15081084 -136.84941673 82.12200546 C-136.17867115 82.11621306 -135.50792557 82.11042066 -134.81685436 82.10445273 C-132.58285706 82.08752915 -130.3490673 82.0845829 -128.11501122 82.08163071 C-126.50823019 82.07232724 -124.90145398 82.06215794 -123.29468346 82.05118942 C-118.94188199 82.02392256 -114.58911284 82.00874984 -110.23624849 81.99576139 C-105.68382538 81.98011636 -101.13146809 81.95333051 -96.57909203 81.92773056 C-87.96261179 81.88096709 -79.34611913 81.8442112 -70.72957695 81.81105769 C-60.91821738 81.77281913 -51.10692398 81.7234135 -41.2956202 81.67307353 C-21.11681373 81.56978984 -0.93796536 81.48051783 19.24094582 81.40047836 C18.64848061 80.8168956 18.0560154 80.23331284 17.44559669 79.63204575 C11.84459061 74.11142404 6.25343369 68.58105176 0.67292595 63.03970718 C-2.19592831 60.19166446 -5.06835587 57.34743652 -7.94948387 54.51180649 C-10.73348951 51.77148859 -13.50740558 49.02131239 -16.27480888 46.26423264 C-17.32857428 45.21781761 -18.38583509 44.17490963 -19.44672966 43.13572311 C-31.96529149 30.8630657 -31.96529149 30.8630657 -33.25514793 21.98641586 C-33.11639004 14.38248335 -32.54294937 9.74115259 -27.57155418 3.77547836 C-19.13646172 -3.34748861 -10.11784401 -5.20651484 0 0 Z " fill="#000000" transform="translate(352.75905418395996,151.5995216369629)"/>
</svg>
